<svg width="49" height="48" viewBox="0 0 49 48" fill="none" xmlns="http://www.w3.org/2000/svg">
<rect width="49" height="48" rx="24" fill="url(#paint0_linear_883_156)"/>
<g clip-path="url(#clip0_883_156)">
<path d="M12.5332 23.8493C12.5326 25.9662 13.0857 28.0332 14.1375 29.855L12.4326 36.0798L18.8029 34.4095C20.5649 35.3687 22.539 35.8713 24.5451 35.8714H24.5504C31.1729 35.8714 36.5639 30.4825 36.5667 23.8587C36.568 20.6491 35.3191 17.6309 33.0502 15.3602C30.7816 13.0897 27.7646 11.8386 24.5499 11.8372C17.9266 11.8372 12.536 17.2258 12.5333 23.8493" fill="url(#paint1_linear_883_156)"/>
<path d="M12.1045 23.8453C12.1038 26.0384 12.6768 28.1793 13.766 30.0664L12 36.5144L18.5987 34.7842C20.4169 35.7755 22.464 36.2981 24.547 36.2989H24.5523C31.4125 36.2989 36.9971 30.7161 37 23.8553C37.0012 20.5303 35.7074 17.4036 33.3574 15.0516C31.0071 12.6998 27.8821 11.4037 24.5523 11.4023C17.691 11.4023 12.1072 16.9844 12.1045 23.8453ZM16.0343 29.7414L15.7879 29.3503C14.7521 27.7034 14.2055 25.8003 14.2062 23.8461C14.2084 18.1435 18.8494 13.5039 24.5563 13.5039C27.3199 13.5051 29.9172 14.5824 31.8707 16.5371C33.8241 18.492 34.899 21.0906 34.8983 23.8545C34.8958 29.5571 30.2547 34.1973 24.5523 34.1973H24.5482C22.6915 34.1963 20.8705 33.6977 19.2824 32.7554L18.9045 32.5312L14.9887 33.5579L16.0343 29.7414Z" fill="url(#paint2_linear_883_156)"/>
<path d="M21.4414 18.6434C21.2084 18.1255 20.9632 18.1151 20.7416 18.106C20.5602 18.0982 20.3527 18.0988 20.1455 18.0988C19.9381 18.0988 19.6011 18.1768 19.3162 18.4878C19.0311 18.7992 18.2275 19.5515 18.2275 21.0817C18.2275 22.6119 19.3421 24.0908 19.4975 24.2985C19.653 24.5058 21.6491 27.7464 24.8104 28.9931C27.4378 30.0291 27.9725 29.8231 28.5427 29.7711C29.113 29.7194 30.3829 29.019 30.642 28.2927C30.9013 27.5665 30.9013 26.9441 30.8235 26.814C30.7458 26.6844 30.5384 26.6066 30.2273 26.4511C29.9163 26.2956 28.3871 25.5431 28.102 25.4393C27.8169 25.3356 27.6096 25.2838 27.4021 25.5952C27.1947 25.9062 26.5991 26.6066 26.4176 26.814C26.2362 27.0219 26.0547 27.0478 25.7437 26.8922C25.4325 26.7362 24.4309 26.4081 23.2425 25.3487C22.3179 24.5243 21.6937 23.5062 21.5122 23.1948C21.3308 22.8838 21.4928 22.7153 21.6487 22.5603C21.7885 22.4209 21.9599 22.1971 22.1155 22.0156C22.2706 21.8339 22.3224 21.7043 22.4261 21.4969C22.5299 21.2893 22.4779 21.1077 22.4003 20.9521C22.3224 20.7965 21.718 19.2583 21.4414 18.6434Z" fill="white"/>
</g>
<defs>
<linearGradient id="paint0_linear_883_156" x1="2450" y1="4800" x2="2450" y2="0" gradientUnits="userSpaceOnUse">
<stop stop-color="#1FAF38"/>
<stop offset="1" stop-color="#60D669"/>
</linearGradient>
<linearGradient id="paint1_linear_883_156" x1="1219.14" y1="2436.1" x2="1219.14" y2="11.8372" gradientUnits="userSpaceOnUse">
<stop stop-color="#1FAF38"/>
<stop offset="1" stop-color="#60D669"/>
</linearGradient>
<linearGradient id="paint2_linear_883_156" x1="1262" y1="2522.6" x2="1262" y2="11.4023" gradientUnits="userSpaceOnUse">
<stop stop-color="#F9F9F9"/>
<stop offset="1" stop-color="white"/>
</linearGradient>
<clipPath id="clip0_883_156">
<rect width="25" height="25.1953" fill="white" transform="translate(12 11.4023)"/>
</clipPath>
</defs>
</svg>
